<?xml version="1.0" encoding="UTF-8" standalone="no"?>
<!-- Created with Inkscape (http://www.inkscape.org/) -->

<svg
   version="1.1"
   id="svg2"
   width="1706.6667"
   height="1066.6667"
   viewBox="0 0 1706.6667 1066.6667"
   sodipodi:docname="21f47f47-62c0-4af6-8953-25725642287d.ai"
   xmlns:inkscape="http://www.inkscape.org/namespaces/inkscape"
   xmlns:sodipodi="http://sodipodi.sourceforge.net/DTD/sodipodi-0.dtd"
   xmlns="http://www.w3.org/2000/svg"
   xmlns:svg="http://www.w3.org/2000/svg">
  <defs
     id="defs6">
    <clipPath
       clipPathUnits="userSpaceOnUse"
       id="clipPath18">
      <path
         d="M 0,800 H 1280 V 0 H 0 Z"
         id="path16" />
    </clipPath>
  </defs>
  <sodipodi:namedview
     id="namedview4"
     pagecolor="#ffffff"
     bordercolor="#000000"
     borderopacity="0.25"
     inkscape:showpageshadow="2"
     inkscape:pageopacity="0.0"
     inkscape:pagecheckerboard="0"
     inkscape:deskcolor="#d1d1d1" />
  <g
     id="g8"
     inkscape:groupmode="layer"
     inkscape:label="21f47f47-62c0-4af6-8953-25725642287d"
     transform="matrix(1.3333333,0,0,-1.3333333,0,1066.6667)">
    <path
       d="M 0,0.001 H 1280 V 800 H 0 Z"
       style="fill:#ffffff;fill-opacity:1;fill-rule:nonzero;stroke:none"
       id="path10" />
    <g
       id="g12">
      <g
         id="g14"
         clip-path="url(#clipPath18)">
        <g
           id="g20"
           transform="translate(36.7246,81.9448)">
          <path
             d="m 0,0 h 184 c 0,0 -11,-13 80,-13 91,0 84,13 84,13 0,0 1,7 -18,9 -19,2 -51,12 -56,33 -5,21 -4,136 17,185 21,49 96,159 96,159 0,0 8,11 -8,11 H 161 c 0,0 -15,1 -9,-10 0,0 17,-9 36,-11 0,0 -36,21.047 -46,21.024 C 132,397 161,432 190,388 c 0,0 -25,45 8,44 33,-1 7,-43 7,-43 0,0 23,35 44,16 l -38,-28 157,-1 -78,-125 c 0,0 -4,-11 -25,-11 0,0 -35,2 -104,133 0,0 78,-130 83,-149 5,-19 14,-83 15,-181 0,0 -20,-35 -60,-36 0,0 0,-11 66,-11 66,0 58,4 58,4 h 57 c 0,0 9,-14 68,-13 59,1 72,17 72,17 l 23,252 c 0,0 -14,5 -94,5 l 53,257 c 0,0 -5,5 -10,0 L 438,261 h -34 c 0,0 9,13 31,14 0,0 -27,14 -48,-7 -21,-21 19,-20 28,41 0,0 -27.993,-14.967 -31,-33 0,0 14,30.333 -10,42.055 0,0 -11,-13.055 -4,-39.055 0,0 -14.535,17.546 -28,17 0,0 20,-29 29,-37 l -13,1 3,-26 c 0,0 144,6 169,0 25,-6 -2,-62 -14,-67 -12,-5 -53,11 -54,24 -1,13 9.948,28.454 20,37 10.052,8.546 23,-68 21,-82 -2,-14 -50,-14 -60,-6 -10,8 -22,50 -15,60 7,10 48.604,13.426 58,8 9.396,-5.426 9,-50 3,-57 -6,-7 -42,-19 -44,-35 -2,-16 15,-38 25,-39 10,-1 49,7 41,38 -8,31 -47,14 -53,3 -6,-11 -12,-39 -39,-39 -27,0 -44,33 -38,47 6,14 27,28 36,28 9,0 21,-24 21,-24 0,0 -43,-2 -52,32 -9,34 -6,39 13,51 19,12 33.73,16.999 40,6 6.27,-10.999 20,-40 10,-48 -10,-8 -42,-16 -50,-10 -8,6 -37,63 -37,63 L 377,29 c 0,0 13,-20 65,-17 52,3 68,10 71,21 L 510,0 h 62 c 0,0 -19,2 -13,-5 6,-7 75,-8.042 75,-8.042 0,0 65,0.042 83,8.042 18,8 -12,11 -12,11 0,0 -46,-1 -60,29 -14,30 -1,138 4,149 5,11 22,18 30,40 8,22 10,52 21,66 11,14 59,14 55,87 l -58,2 c 0,0 3,66 53,66 50,0 41,-64 41,-64 0,0 -6,-46 -34,-50 l 6,21.922 H 512 L 506,379 h 177 c 0,0 -177,-8 -166,-43 11,-35 39,-25 53,-44 14,-19 11,-54 23,-70 12,-16 23,-24 26,-36 3,-12 11.101,-97.487 4,-148 0,0 -12,-24 -40,-27 0,0 8,-13 50,-13 42,0 89,2 89,2 h 33 c 0,0 0,-13.035 65,-13.042 76,-0.009 72.606,25.899 72.606,25.899 L 905,153 l 10,21 5,84 c 0,0 -33,4 -81,4 l 37,243 -9,9 -38,-251 c 0,0 -48.127,-1.656 -95,-5 l 1,-31 c 0,0 140,6 170,2 0,0 -64,8 -35,72 0,0 8,-13 8,-22 0,-9 -13,33.11 38,39.055 C 967,324 993,370 999,397 c 0,0 28,-37.156 -7,-44.078 0,0 28,33.922 71,0 0,0 -10.407,-20.193 -48,-9.922 0,0 38,-21 21,-50 0,0 -3,25 -42,48 0,0 -23,-2 -37,-18 0,0 43,-11 66,-38 0,0 -36.069,-19.011 -77,6 0,0 17,31 -12,81 0,0 -42,-25 -13,-81 0,0 42,39.18 78,-37.41 0,0 -22.389,-26.683 -87,18.41 0,0 59,10 55,-66 0,0 -40.014,57.635 -73,41 l -1,-27 c 0,0 -73,2 -157,-2 l 2,-48 9,-23 6,-118 c 0,0 9.616,-28.416 66,-20 67,10 66,-9 66,-9 h 326"
             style="fill:none;stroke:#2f292b;stroke-width:4;stroke-linecap:round;stroke-linejoin:round;stroke-miterlimit:10;stroke-dasharray:none;stroke-opacity:1"
             id="path22" />
        </g>
      </g>
    </g>
  </g>
</svg>
